PathFileType	4	(X/Y/Z)	C:/Users/opensim2020/Desktop/walking_exp_matlab/subject03_walking05_straight_01.trc	
DataRate	CameraRate	NumFrames	NumMarkers	Units	OrigDataRate	OrigDataStartFrame	OrigNumFrames	
100.00	100.00	8	45	mm	100.00	987	298	
Frame#	Time	LFHD			RFHD			LBHD			RBHD			C7			T10			CLAV			STRN			RBAK			LSHO			LUPA			LELB			LFRM			LWRA			LWRB			LFIN			RSHO			RUPA			RELB			RFRM			RWRA			RWRB			RFIN			LASI			RASI			LPSI			RPSI			LTHI			LKNE			LTIB			LANK			LHEE			LTOE			RTHI			RKNE			RTIB			RANK			RHEE			RTOE			*39			*40			*41			*42			*43			*44			
		X1	Y1	Z1	X2	Y2	Z2	X3	Y3	Z3	X4	Y4	Z4	X5	Y5	Z5	X6	Y6	Z6	X7	Y7	Z7	X8	Y8	Z8	X9	Y9	Z9	X10	Y10	Z10	X11	Y11	Z11	X12	Y12	Z12	X13	Y13	Z13	X14	Y14	Z14	X15	Y15	Z15	X16	Y16	Z16	X17	Y17	Z17	X18	Y18	Z18	X19	Y19	Z19	X20	Y20	Z20	X21	Y21	Z21	X22	Y22	Z22	X23	Y23	Z23	X24	Y24	Z24	X25	Y25	Z25	X26	Y26	Z26	X27	Y27	Z27	X28	Y28	Z28	X29	Y29	Z29	X30	Y30	Z30	X31	Y31	Z31	X32	Y32	Z32	X33	Y33	Z33	X34	Y34	Z34	X35	Y35	Z35	X36	Y36	Z36	X37	Y37	Z37	X38	Y38	Z38	X39	Y39	Z39	X40	Y40	Z40	X41	Y41	Z41	X42	Y42	Z42	X43	Y43	Z43	X44	Y44	Z44	X45	Y45	Z45	

261	2.600	-1041.60400	1215.10510	1611.34155	-918.13000	1165.46741	1612.14636	-1088.76489	1090.62463	1585.48657	-965.93640	1045.46875	1584.53223	-1042.76379	1025.25928	1417.23523	-1043.13184	996.94421	1099.74316	-1017.20135	1142.84021	1340.19641	-1014.36121	1190.51855	1177.18213	-958.42114	954.28149	1237.62769	-1178.47107	1128.06885	1377.16748	-1253.33923	1151.58740	1183.11804	-1264.83398	1177.21960	1062.87708	-1257.97412	1218.96216	939.39148	-1225.80872	1243.30273	824.07050	-1281.06982	1236.82227	828.96008	-1269.40369	1264.05383	750.30414	-870.04297	1064.84729	1363.64099	-801.53162	1066.76428	1139.38562	-789.42871	1090.14526	1028.53845	-788.04108	1117.90930	894.58099	-822.87213	1159.48022	803.30316	-781.53015	1124.95007	794.23950	-791.69226	1155.52600	726.04120	-1138.41455	1183.90222	946.39825	-901.89844	1152.23840	938.42181	-1108.33496	1015.64789	964.63000	-960.54492	997.73816	961.56281	-1182.28162	1134.10571	642.92035	-1140.60193	1132.22217	464.74881	-1147.53894	1079.94421	276.03595	-1107.23938	1057.73840	66.27796	-1075.10522	1013.92346	32.12232	-1069.62231	1208.14624	28.89942	-864.56378	1166.66138	643.67065	-887.27319	1240.91736	479.18161	-897.84332	1127.36658	327.64566	-953.64618	998.62744	158.68153	-1010.66901	948.10956	153.09056	-961.93970	1096.12402	56.86885	-1020.05402	1127.47034	1681.63940															 
262	2.610	-1039.83374	1224.50476	1610.88940	-916.58997	1174.29004	1611.50879	-1087.67065	1100.21594	1585.35071	-965.11469	1054.41016	1584.21472	-1042.01062	1034.28467	1416.89001	-1042.84546	1005.65961	1099.65979	-1016.28119	1151.72351	1339.82788	-1013.70728	1199.19067	1176.78589	-958.22681	962.82275	1237.50269	-1177.48804	1137.49683	1377.46619	-1252.95032	1163.13721	1184.08044	-1264.68616	1191.15161	1064.43176	-1257.45093	1235.87354	942.07129	-1224.92383	1262.96655	827.37292	-1280.13403	1256.19019	831.91235	-1268.55518	1285.64539	754.29877	-869.42578	1073.15894	1363.11084	-801.10974	1073.05188	1138.73999	-788.98669	1095.56360	1027.74072	-787.73480	1122.38464	893.47650	-822.34589	1163.35266	801.97626	-781.21741	1128.42773	793.19598	-791.18579	1158.82629	724.67615	-1137.94800	1192.49072	945.85724	-901.46564	1160.77844	938.08673	-1107.73962	1024.23975	964.24615	-960.10809	1006.30518	961.20203	-1181.83350	1140.63110	642.45923	-1140.21741	1136.81958	464.29034	-1147.24304	1082.63562	276.03815	-1106.50818	1058.06287	66.53695	-1074.72058	1014.40448	32.04054	-1069.60852	1208.27649	28.88688	-863.75647	1178.68201	644.53503	-887.45166	1255.48682	481.32474	-897.89709	1147.74817	324.88977	-953.56165	1026.51819	150.23926	-1010.86926	975.90784	141.97951	-961.42212	1129.24438	54.18272	-1018.59442	1136.91089	1681.32007															 
263	2.620	-1038.01648	1233.84851	1610.32678	-914.99249	1183.06592	1610.82556	-1086.53101	1109.76477	1585.13086	-964.15698	1063.42334	1583.84778	-1041.42688	1043.38501	1416.73425	-1042.63208	1014.37793	1099.36304	-1015.31201	1160.54333	1339.34802	-1012.97723	1207.85583	1176.23376	-958.09424	971.35724	1237.16260	-1176.39844	1146.89856	1377.44458	-1252.57214	1174.64380	1184.88867	-1264.57434	1204.78516	1065.82861	-1256.90466	1252.40906	944.61407	-1223.91138	1282.51062	830.75665	-1279.10266	1275.57471	835.17615	-1267.50781	1306.96851	758.25940	-868.66821	1081.55103	1362.52075	-800.61627	1079.57849	1138.01514	-788.42334	1100.92908	1026.78088	-787.39343	1126.33911	892.16534	-821.63300	1167.33386	800.57013	-780.85596	1132.05029	792.00635	-790.54321	1161.60413	723.25763	-1137.47778	1201.01746	945.16418	-900.88855	1169.33057	937.61499	-1107.20215	1032.67920	963.78119	-959.64807	1014.83044	960.61792	-1181.28528	1147.10632	641.83423	-1139.80737	1141.41528	463.79660	-1146.84070	1085.28955	276.04489	-1106.57703	1058.39539	66.94677	-1074.45251	1014.30420	32.69847	-1069.58704	1208.35327	28.85444	-863.17548	1190.29187	645.49719	-887.45520	1269.36768	483.21698	-897.74774	1167.87207	321.80676	-953.43768	1054.94385	141.63857	-1010.84619	1004.92291	130.46683	-960.77832	1162.83057	51.58312	-1017.08411	1146.29358	1680.87134															 
264	2.630	-1036.19019	1243.18494	1609.70483	-913.39014	1191.89343	1610.06592	-1085.32336	1119.27991	1584.73633	-963.23462	1072.32544	1583.30945	-1040.67139	1052.45251	1416.31226	-1042.33228	1023.12671	1099.01306	-1014.34631	1169.44714	1338.75391	-1012.24847	1216.58960	1175.57361	-957.97607	979.98932	1236.60889	-1175.25305	1156.35547	1377.27100	-1252.03223	1186.16626	1185.55322	-1264.44727	1218.28979	1067.12585	-1256.34644	1268.88000	947.16278	-1222.86108	1301.98975	834.28650	-1277.97974	1294.59729	838.19482	-1266.32776	1328.02332	762.29388	-867.86780	1089.98877	1361.80273	-800.10059	1086.08691	1137.13062	-787.78320	1106.37170	1025.76563	-786.89850	1130.83704	890.93335	-820.86188	1171.45740	799.07629	-780.58600	1135.72192	790.71381	-790.17224	1164.88171	721.76996	-1137.06677	1209.54504	944.47748	-900.31714	1177.84692	937.07690	-1106.56665	1041.07813	963.15216	-959.10718	1023.31897	960.01416	-1180.51648	1153.60583	641.23444	-1139.33313	1145.97131	463.28778	-1146.36682	1087.94482	275.99573	-1105.92102	1058.70557	67.02387	-1074.26453	1014.31140	33.04702	-1069.58008	1208.47778	28.86341	-862.41852	1201.50598	646.19299	-887.29993	1282.43323	484.84000	-897.40991	1187.83716	318.54782	-953.17059	1084.45874	133.04390	-1010.48700	1035.02271	118.93782	-959.94189	1196.59143	49.12970	-1015.51532	1155.65503	1680.30054															 
265	2.640	-1034.31909	1252.51868	1609.00342	-911.70630	1200.63257	1609.15247	-1084.08606	1128.78784	1584.26733	-962.16101	1081.32446	1582.64307	-1039.85205	1061.53870	1415.78223	-1041.92322	1031.88660	1098.18042	-1013.32764	1178.31348	1338.02856	-1011.48511	1225.31067	1174.79126	-957.81738	988.66589	1235.95850	-1174.10706	1165.80676	1376.97192	-1251.47339	1197.68115	1186.07739	-1264.29565	1231.67322	1068.31140	-1255.93567	1285.24451	949.76013	-1221.72607	1321.28918	837.85126	-1276.66064	1313.34705	841.15991	-1264.92578	1348.75684	766.26227	-867.14380	1098.22278	1360.61353	-799.56274	1092.74585	1136.14697	-786.97803	1111.76672	1024.63354	-786.30078	1135.35632	889.62476	-820.07587	1175.70508	797.53088	-780.42249	1139.52148	789.32416	-789.40906	1168.22253	720.21399	-1136.58313	1218.03491	943.62903	-899.73639	1186.38684	936.50262	-1105.89368	1049.45874	962.45886	-958.48798	1031.87817	959.25635	-1179.64160	1160.06396	640.67487	-1138.81860	1150.46655	462.80545	-1145.87683	1090.58057	275.99899	-1105.57141	1058.97839	67.27798	-1073.88416	1014.37158	33.53609	-1069.62878	1208.63086	28.92674	-861.34851	1212.67761	646.78607	-886.87152	1294.72095	486.13782	-896.87115	1207.46765	315.19104	-953.13959	1114.03455	124.23250	-1010.52838	1066.24402	107.55659	-958.82794	1230.78845	47.08775	-1013.88434	1164.91479	1679.60535															 
266	2.650	-1032.40894	1261.82019	1608.20959	-909.98871	1209.41223	1608.18701	-1082.78796	1138.31689	1583.63916	-961.13367	1090.23206	1581.79529	-1038.89734	1070.65002	1415.10889	-1041.58569	1040.58984	1097.77026	-1012.26538	1187.22705	1337.19348	-1010.66217	1234.02588	1173.87219	-957.59845	997.39429	1235.08984	-1172.87354	1175.26160	1376.45691	-1250.78455	1209.25342	1186.43921	-1263.99866	1244.88916	1069.35205	-1255.28271	1301.26233	952.17023	-1220.47266	1340.30896	841.47284	-1275.34033	1331.83752	844.11053	-1263.28662	1369.16333	770.24609	-866.18829	1106.80957	1359.69006	-798.91144	1099.54541	1135.03015	-786.29675	1117.48206	1023.37836	-785.71100	1140.03943	888.16681	-819.22729	1180.07483	795.93396	-780.00928	1143.49500	787.85284	-788.84729	1171.69751	718.55103	-1136.49390	1225.94470	942.47937	-899.15570	1195.05396	935.93353	-1105.08960	1057.88538	961.72772	-957.73883	1040.41736	958.41364	-1179.12537	1166.18140	639.93378	-1138.27673	1155.00049	462.31607	-1145.36719	1093.20386	276.01743	-1105.46240	1059.33984	67.80406	-1073.47290	1014.25293	33.95889	-1069.66479	1208.80334	28.99052	-860.50165	1223.30701	647.36407	-886.12048	1306.26123	486.97595	-896.20978	1226.59155	311.55792	-952.90564	1143.94714	116.07168	-1010.53601	1097.35291	96.20381	-957.67957	1265.00391	45.51755	-1012.23859	1174.18469	1678.84521															 
267	2.660	-1030.46289	1271.10242	1607.33679	-908.26740	1218.21631	1607.11377	-1081.44092	1147.82300	1582.81641	-959.99280	1099.22656	1580.79053	-1037.95337	1079.80994	1414.35071	-1040.98474	1049.32617	1096.95862	-1011.16107	1196.19800	1336.22363	-1009.79956	1242.77625	1172.83325	-957.35474	1006.07233	1234.22314	-1171.63379	1184.75208	1375.86499	-1250.03137	1220.84338	1186.76355	-1263.57971	1258.01660	1070.24451	-1254.51099	1317.03821	954.48492	-1219.09216	1359.06689	845.11334	-1273.83862	1349.95959	846.93268	-1261.43628	1389.19299	774.10437	-865.17053	1115.37793	1358.57666	-798.23157	1106.44934	1133.85864	-785.81073	1123.54053	1022.06152	-785.10065	1144.89832	886.67609	-818.36572	1184.48596	794.22089	-779.50964	1147.22632	786.25781	-788.43719	1175.31616	716.88452	-1136.08765	1234.18921	941.61993	-898.60590	1203.78088	935.28198	-1104.17163	1066.26746	960.89288	-956.98419	1049.03687	957.54834	-1177.61279	1173.07056	639.42065	-1137.72339	1159.58594	461.82990	-1144.83826	1095.79065	275.99228	-1104.89172	1059.60620	67.95392	-1073.16211	1014.31738	34.41441	-1069.97192	1209.49512	29.72306	-859.41711	1233.86755	647.51599	-885.04651	1317.02979	487.38147	-895.40564	1245.16882	307.83264	-952.50714	1174.58472	107.58032	-1010.51257	1129.69360	85.32662	-956.08588	1299.32129	44.50173	-1010.52252	1183.33289	1677.90283															 
268	2.670	-1028.49109	1280.38013	1606.38831	-906.50995	1227.04272	1605.97974	-1080.10706	1157.33826	1581.91211	-958.89557	1108.16187	1579.63464	-1036.96545	1089.03613	1413.50256	-1040.30701	1058.02588	1096.11743	-1009.99048	1205.21753	1335.14380	-1008.92419	1251.60413	1171.71851	-957.00836	1014.89014	1233.24170	-1170.32568	1194.25708	1375.15515	-1249.08801	1232.30396	1186.87183	-1263.05872	1271.10242	1071.09155	-1253.60840	1332.63086	956.72064	-1217.61316	1377.50269	848.75146	-1272.25256	1367.85339	849.77179	-1259.35669	1408.84424	777.95007	-864.12811	1123.99255	1357.32141	-797.48041	1113.49878	1132.59680	-785.16571	1129.63879	1020.66498	-784.55365	1149.90845	885.10352	-817.59320	1188.99390	792.45319	-779.16150	1151.35828	784.62457	-787.96649	1179.09241	715.15149	-1135.67078	1242.49817	940.70874	-898.06396	1212.66235	934.49554	-1103.22375	1074.83716	960.13281	-956.09888	1057.69153	956.62677	-1176.77502	1179.47607	638.73590	-1137.19543	1164.13147	461.20831	-1144.44727	1098.35388	275.96036	-1104.96497	1059.91919	68.40042	-1072.93713	1014.38049	34.83598	-1069.75562	1209.26965	29.47934	-858.36633	1243.99011	647.70654	-883.80945	1326.86938	487.27600	-894.42999	1263.33179	304.19016	-951.99792	1205.46521	99.92530	-1010.77100	1162.35400	74.73109	-954.14911	1333.50220	43.95455	-1008.89490	1192.52649	1676.88611															 
